# xmcd
#
# Track frame offsets:
# 150
# 14052
# 29919
# 45988
# 59413
# 89852
# 101575
# 116761
# 147250
# 159856
# 175524
# 188477
# 210910
#
# Disc length: 2995 seconds
#
# Revision: 0
# Processed by: cddbd v1.5.1PL0 Copyright (c) Steve Scherf et al.
# Submitted via: Audion 3.0.2 (http://www.panic.com/audion/)
#
DISCID=ae0bb10d
DTITLE=Various Artist - That's The Way I Feel Now(Monk Tribute) LP2
DYEAR=1900
DGENRE=
TTITLE0=Four in One
TTITLE1=Functional
TTITLE2=Evidence
TTITLE3=Shuffle Boil
TTITLE4=In Walked Bud
TTITLE5=Criss Cross
TTITLE6=Jackie-ing
TTITLE7='Round Midnight
TTITLE8=Friday The Thirteenth
TTITLE9=Work
TTITLE10=Gallop's Gallop
TTITLE11=Bye-Ya
TTITLE12=Bemsha Swing
EXTD=
EXTT0=
EXTT1=
EXTT2=
EXTT3=
EXTT4=
EXTT5=
EXTT6=
EXTT7=
EXTT8=
EXTT9=
EXTT10=
EXTT11=
EXTT12=
PLAYORDER=
